<svg width="12" height="13" viewBox="0 0 12 13" fill="none" xmlns="http://www.w3.org/2000/svg">
<path d="M6 0.6875C2.78906 0.6875 0.1875 3.28906 0.1875 6.5C0.1875 9.71094 2.78906 12.3125 6 12.3125C9.21094 12.3125 11.8125 9.71094 11.8125 6.5C11.8125 3.28906 9.21094 0.6875 6 0.6875ZM8.64844 6.10156C8.88281 6.33594 8.88281 6.6875 8.64844 6.89844L5.48438 10.0859C5.27344 10.2969 4.89844 10.2969 4.6875 10.0859L4.28906 9.6875C4.07812 9.47656 4.07812 9.10156 4.28906 8.89062L6.67969 6.5L4.28906 4.13281C4.07812 3.92188 4.07812 3.54688 4.28906 3.33594L4.6875 2.9375C4.89844 2.72656 5.27344 2.72656 5.48438 2.9375L8.64844 6.10156Z" fill="#E53045"/>
</svg>
