<svg width="35" height="19" viewBox="0 0 35 19" fill="none" xmlns="http://www.w3.org/2000/svg">
<path d="M26.25 0.75H8.75C3.88281 0.75 0 4.6875 0 9.5C0 14.3672 3.88281 18.25 8.75 18.25C11.1562 18.25 13.3984 17.2656 14.9844 15.625H19.9609C21.5469 17.2656 23.7891 18.3047 26.25 18.3047C31.0625 18.3047 35 14.3672 35 9.55469C35 4.6875 31.0625 0.804688 26.25 0.75ZM13.5625 10.1562C13.5625 10.5391 13.2344 10.8125 12.9062 10.8125H10.0625V13.6562C10.0625 14.0391 9.73438 14.3125 9.40625 14.3125H8.09375C7.71094 14.3125 7.4375 14.0391 7.4375 13.6562V10.8125H4.59375C4.21094 10.8125 3.9375 10.5391 3.9375 10.1562V8.84375C3.9375 8.51562 4.21094 8.1875 4.59375 8.1875H7.4375V5.34375C7.4375 5.01562 7.71094 4.6875 8.09375 4.6875H9.40625C9.73438 4.6875 10.0625 5.01562 10.0625 5.34375V8.1875H12.9062C13.2344 8.1875 13.5625 8.51562 13.5625 8.84375V10.1562ZM25.375 14.3125C24.1172 14.3125 23.1875 13.3828 23.1875 12.125C23.1875 10.9219 24.1172 9.9375 25.375 9.9375C26.5781 9.9375 27.5625 10.9219 27.5625 12.125C27.5625 13.3828 26.5781 14.3125 25.375 14.3125ZM28.875 9.0625C27.6172 9.0625 26.6875 8.13281 26.6875 6.875C26.6875 5.67188 27.6172 4.6875 28.875 4.6875C30.0781 4.6875 31.0625 5.67188 31.0625 6.875C31.0625 8.13281 30.0781 9.0625 28.875 9.0625Z" fill="#FCF8D9"/>
</svg>
