<svg width="20" height="19" viewBox="0 0 20 19" fill="none" xmlns="http://www.w3.org/2000/svg">
<path fill-rule="evenodd" clip-rule="evenodd" d="M19.96 13.6252V9.5538V0.680176H2.93869L0.811035 2.97688V15.0868H6.13018V18.845H8.47061L11.0238 16.1307H17.4068L19.96 13.6252ZM7.40669 13.4165H4.00244C3.76839 13.4165 3.5769 13.2286 3.5769 12.9989V2.76817C3.5769 2.5385 3.76839 2.35059 4.00244 2.35059H17.6195C17.8535 2.35059 18.045 2.5385 18.045 2.76817V10.7022C18.045 10.8171 18.0024 10.9215 17.9226 10.9998L15.5822 13.2965C15.5024 13.3748 15.3907 13.4165 15.279 13.4165H11.3695L8.07159 15.6401C8.00244 15.6871 7.91733 15.7132 7.83222 15.7132C7.76307 15.7132 7.69924 15.6976 7.63542 15.6662C7.4918 15.5932 7.40669 15.4522 7.40669 15.2956V13.4165Z" fill="white"/>
<path d="M13.7897 9.76274V5.58691H12.0876V9.76274H13.7897ZM9.5344 9.76274V5.58691H7.83228V9.76274H9.5344Z" fill="white"/>
</svg>
