<svg width="22" height="17" viewBox="0 0 22 17" fill="none" xmlns="http://www.w3.org/2000/svg">
<path fill-rule="evenodd" clip-rule="evenodd" d="M21.2136 2.42967C20.4406 2.75167 19.6096 2.96667 18.7386 3.06467C19.6286 2.56467 20.3116 1.77267 20.6336 0.830668C19.7996 1.29267 18.8776 1.62867 17.8956 1.81067C17.1106 1.02467 15.9896 0.534668 14.7506 0.534668C12.3706 0.534668 10.4396 2.34367 10.4396 4.57367C10.4396 4.89067 10.4776 5.19967 10.5516 5.49467C6.96957 5.32567 3.79357 3.71767 1.66757 1.27467C1.29657 1.87167 1.08457 2.56467 1.08457 3.30567C1.08457 4.70567 1.84557 5.94367 3.00157 6.66767C2.29557 6.64567 1.63157 6.46467 1.04957 6.16167C1.04957 6.17967 1.04957 6.19467 1.04957 6.21367C1.04957 8.17067 2.53457 9.80267 4.50657 10.1737C4.14557 10.2657 3.76357 10.3137 3.37157 10.3137C3.09357 10.3137 2.82357 10.2897 2.56057 10.2437C3.10857 11.8467 4.70057 13.0157 6.58657 13.0487C5.11157 14.1317 3.25357 14.7767 1.23357 14.7767C0.885566 14.7767 0.542566 14.7577 0.205566 14.7207C2.11257 15.8657 4.37857 16.5357 6.81257 16.5357C14.7406 16.5357 19.0756 10.3797 19.0756 5.04267C19.0756 4.86667 19.0706 4.69367 19.0626 4.51967C19.9046 3.94967 20.6356 3.23867 21.2136 2.42967Z" fill="white"/>
</svg>
